<mxfile host="app.diagrams.net" agent="Mozilla/5.0 (Windows NT 10.0; Win64; x64) AppleWebKit/537.36 (KHTML, like Gecko) Chrome/137.0.0.0 Safari/537.36 Edg/137.0.0.0" version="28.0.6">
  <diagram name="第 1 页" id="Fer05_l_wNtuRjOIuYct">
    <mxGraphModel dx="778" dy="1613" grid="1" gridSize="10" guides="1" tooltips="1" connect="1" arrows="1" fold="1" page="1" pageScale="1" pageWidth="827" pageHeight="1169" math="0" shadow="0">
      <root>
        <mxCell id="0" />
        <mxCell id="1" parent="0" />
        <mxCell id="CPB3MRj11Ws4QXEBcg-o-15" value="" style="rounded=0;whiteSpace=wrap;html=1;fillColor=none;align=left;" vertex="1" parent="1">
          <mxGeometry x="80" y="200" width="330" height="220" as="geometry" />
        </mxCell>
        <mxCell id="CPB3MRj11Ws4QXEBcg-o-18" value="" style="rounded=0;whiteSpace=wrap;html=1;fillColor=none;" vertex="1" parent="1">
          <mxGeometry x="80" y="-10" width="330" height="190" as="geometry" />
        </mxCell>
        <mxCell id="CPB3MRj11Ws4QXEBcg-o-1" value="Windows API" style="text;html=1;align=center;verticalAlign=middle;resizable=0;points=[];autosize=1;strokeColor=none;fillColor=none;" vertex="1" parent="1">
          <mxGeometry x="200" y="70" width="90" height="30" as="geometry" />
        </mxCell>
        <mxCell id="CPB3MRj11Ws4QXEBcg-o-4" value="Nt...&amp;nbsp; Zw..." style="text;html=1;align=center;verticalAlign=middle;resizable=0;points=[];autosize=1;strokeColor=none;fillColor=none;" vertex="1" parent="1">
          <mxGeometry x="195" y="230" width="80" height="30" as="geometry" />
        </mxCell>
        <mxCell id="CPB3MRj11Ws4QXEBcg-o-6" value="&lt;font face=&quot;Helvetica&quot;&gt;&lt;span style=&quot;background-color: transparent; color: light-dark(rgb(0, 0, 0), rgb(255, 255, 255));&quot;&gt;mov eax, ...&lt;/span&gt;&lt;br&gt;&lt;span style=&quot;background-color: transparent; color: light-dark(rgb(0, 0, 0), rgb(255, 255, 255));&quot;&gt;mov edx,&amp;nbsp;&lt;/span&gt;7FFE0300h&lt;br&gt;&lt;span style=&quot;background-color: transparent; color: light-dark(rgb(0, 0, 0), rgb(255, 255, 255));&quot;&gt;call dword ptr [edx]&lt;/span&gt;&lt;br&gt;&lt;span style=&quot;background-color: transparent; color: light-dark(rgb(0, 0, 0), rgb(255, 255, 255));&quot;&gt;retn ...&lt;/span&gt;&lt;/font&gt;" style="text;html=1;align=left;verticalAlign=middle;resizable=0;points=[];autosize=1;strokeColor=none;fillColor=none;" vertex="1" parent="1">
          <mxGeometry x="220" y="250" width="140" height="70" as="geometry" />
        </mxCell>
        <mxCell id="CPB3MRj11Ws4QXEBcg-o-10" value="&lt;div&gt;&lt;font face=&quot;Helvetica&quot; style=&quot;font-size: 9px;&quot;&gt;ntdll!_KUSER_SHARED_DATA&lt;/font&gt;&lt;/div&gt;&lt;div&gt;&lt;font face=&quot;Helvetica&quot; style=&quot;font-size: 9px;&quot;&gt;&amp;nbsp; &amp;nbsp;+0x000 TickCountLow&amp;nbsp; &amp;nbsp; &amp;nbsp;: Uint4B&lt;/font&gt;&lt;/div&gt;&lt;div&gt;&lt;font face=&quot;Helvetica&quot; style=&quot;font-size: 9px;&quot;&gt;&amp;nbsp; &amp;nbsp;+0x004 TickCountMultiplier : Uint4B&lt;/font&gt;&lt;/div&gt;&lt;div&gt;&lt;font face=&quot;Helvetica&quot; style=&quot;font-size: 9px;&quot;&gt;&amp;nbsp; &amp;nbsp;+0x008 InterruptTime&amp;nbsp; &amp;nbsp; : _KSYSTEM_TIME&lt;/font&gt;&lt;/div&gt;&lt;div&gt;&lt;font face=&quot;Helvetica&quot; style=&quot;font-size: 9px;&quot;&gt;&amp;nbsp; &amp;nbsp;+0x014 SystemTime&amp;nbsp; &amp;nbsp; &amp;nbsp; &amp;nbsp;: _KSYSTEM_TIME&lt;/font&gt;&lt;/div&gt;&lt;div&gt;&lt;font face=&quot;Helvetica&quot; style=&quot;font-size: 9px;&quot;&gt;&amp;nbsp; &amp;nbsp;+0x020 TimeZoneBias&amp;nbsp; &amp;nbsp; &amp;nbsp;: _KSYSTEM_TIME&lt;/font&gt;&lt;/div&gt;&lt;div&gt;&lt;font face=&quot;Helvetica&quot; style=&quot;font-size: 9px;&quot;&gt;&amp;nbsp; &amp;nbsp;+0x02c ImageNumberLow&amp;nbsp; &amp;nbsp;: Uint2B&lt;/font&gt;&lt;/div&gt;&lt;div&gt;&lt;font face=&quot;Helvetica&quot; style=&quot;font-size: 9px;&quot;&gt;&amp;nbsp; &amp;nbsp;+0x02e ImageNumberHigh&amp;nbsp; : Uint2B&lt;/font&gt;&lt;/div&gt;&lt;div&gt;&lt;font face=&quot;Helvetica&quot; style=&quot;font-size: 9px;&quot;&gt;&amp;nbsp; &amp;nbsp;+0x030 NtSystemRoot&amp;nbsp; &amp;nbsp; &amp;nbsp;: [260] Uint2B&lt;/font&gt;&lt;/div&gt;&lt;div&gt;&lt;font face=&quot;Helvetica&quot; style=&quot;font-size: 9px;&quot;&gt;&amp;nbsp; &amp;nbsp;+0x238 MaxStackTraceDepth : Uint4B&lt;/font&gt;&lt;/div&gt;&lt;div&gt;&lt;font face=&quot;Helvetica&quot; style=&quot;font-size: 9px;&quot;&gt;&amp;nbsp; &amp;nbsp;+0x23c CryptoExponent&amp;nbsp; &amp;nbsp;: Uint4B&lt;/font&gt;&lt;/div&gt;&lt;div&gt;&lt;font face=&quot;Helvetica&quot; style=&quot;font-size: 9px;&quot;&gt;&amp;nbsp; &amp;nbsp;+0x240 TimeZoneId&amp;nbsp; &amp;nbsp; &amp;nbsp; &amp;nbsp;: Uint4B&lt;/font&gt;&lt;/div&gt;&lt;div&gt;&lt;font face=&quot;Helvetica&quot; style=&quot;font-size: 9px;&quot;&gt;&amp;nbsp; &amp;nbsp;+0x244 Reserved2&amp;nbsp; &amp;nbsp; &amp;nbsp; &amp;nbsp; : [8] Uint4B&lt;/font&gt;&lt;/div&gt;&lt;div&gt;&lt;font face=&quot;Helvetica&quot; style=&quot;font-size: 9px;&quot;&gt;&amp;nbsp; &amp;nbsp;+0x264 NtProductType&amp;nbsp; &amp;nbsp; : _NT_PRODUCT_TYPE&lt;/font&gt;&lt;/div&gt;&lt;div&gt;&lt;font face=&quot;Helvetica&quot; style=&quot;font-size: 9px;&quot;&gt;&amp;nbsp; &amp;nbsp;+0x268 ProductTypeIsValid : UChar&lt;/font&gt;&lt;/div&gt;&lt;div&gt;&lt;font face=&quot;Helvetica&quot; style=&quot;font-size: 9px;&quot;&gt;&amp;nbsp; &amp;nbsp;+0x26c NtMajorVersion&amp;nbsp; &amp;nbsp;: Uint4B&lt;/font&gt;&lt;/div&gt;&lt;div&gt;&lt;font face=&quot;Helvetica&quot; style=&quot;font-size: 9px;&quot;&gt;&amp;nbsp; &amp;nbsp;+0x270 NtMinorVersion&amp;nbsp; &amp;nbsp;: Uint4B&lt;/font&gt;&lt;/div&gt;&lt;div&gt;&lt;font face=&quot;Helvetica&quot; style=&quot;font-size: 9px;&quot;&gt;&amp;nbsp; &amp;nbsp;+0x274 ProcessorFeatures : [64] UChar&lt;/font&gt;&lt;/div&gt;&lt;div&gt;&lt;font face=&quot;Helvetica&quot; style=&quot;font-size: 9px;&quot;&gt;&amp;nbsp; &amp;nbsp;+0x2b4 Reserved1&amp;nbsp; &amp;nbsp; &amp;nbsp; &amp;nbsp; : Uint4B&lt;/font&gt;&lt;/div&gt;&lt;div&gt;&lt;font face=&quot;Helvetica&quot; style=&quot;font-size: 9px;&quot;&gt;&amp;nbsp; &amp;nbsp;+0x2b8 Reserved3&amp;nbsp; &amp;nbsp; &amp;nbsp; &amp;nbsp; : Uint4B&lt;/font&gt;&lt;/div&gt;&lt;div&gt;&lt;font face=&quot;Helvetica&quot; style=&quot;font-size: 9px;&quot;&gt;&amp;nbsp; &amp;nbsp;+0x2bc TimeSlip&amp;nbsp; &amp;nbsp; &amp;nbsp; &amp;nbsp; &amp;nbsp;: Uint4B&lt;/font&gt;&lt;/div&gt;&lt;div&gt;&lt;font face=&quot;Helvetica&quot; style=&quot;font-size: 9px;&quot;&gt;&amp;nbsp; &amp;nbsp;+0x2c0 AlternativeArchitecture : _ALTERNATIVE_ARCHITECTURE_TYPE&lt;/font&gt;&lt;/div&gt;&lt;div&gt;&lt;font face=&quot;Helvetica&quot; style=&quot;font-size: 9px;&quot;&gt;&amp;nbsp; &amp;nbsp;+0x2c8 SystemExpirationDate : _LARGE_INTEGER&lt;/font&gt;&lt;/div&gt;&lt;div&gt;&lt;font face=&quot;Helvetica&quot; style=&quot;font-size: 9px;&quot;&gt;&amp;nbsp; &amp;nbsp;+0x2d0 SuiteMask&amp;nbsp; &amp;nbsp; &amp;nbsp; &amp;nbsp; : Uint4B&lt;/font&gt;&lt;/div&gt;&lt;div&gt;&lt;font face=&quot;Helvetica&quot; style=&quot;font-size: 9px;&quot;&gt;&amp;nbsp; &amp;nbsp;+0x2d4 KdDebuggerEnabled : UChar&lt;/font&gt;&lt;/div&gt;&lt;div&gt;&lt;font face=&quot;Helvetica&quot; style=&quot;font-size: 9px;&quot;&gt;&amp;nbsp; &amp;nbsp;+0x2d5 NXSupportPolicy&amp;nbsp; : UChar&lt;/font&gt;&lt;/div&gt;&lt;div&gt;&lt;font face=&quot;Helvetica&quot; style=&quot;font-size: 9px;&quot;&gt;&amp;nbsp; &amp;nbsp;+0x2d8 ActiveConsoleId&amp;nbsp; : Uint4B&lt;/font&gt;&lt;/div&gt;&lt;div&gt;&lt;font face=&quot;Helvetica&quot; style=&quot;font-size: 9px;&quot;&gt;&amp;nbsp; &amp;nbsp;+0x2dc DismountCount&amp;nbsp; &amp;nbsp; : Uint4B&lt;/font&gt;&lt;/div&gt;&lt;div&gt;&lt;font face=&quot;Helvetica&quot; style=&quot;font-size: 9px;&quot;&gt;&amp;nbsp; &amp;nbsp;+0x2e0 ComPlusPackage&amp;nbsp; &amp;nbsp;: Uint4B&lt;/font&gt;&lt;/div&gt;&lt;div&gt;&lt;font face=&quot;Helvetica&quot; style=&quot;font-size: 9px;&quot;&gt;&amp;nbsp; &amp;nbsp;+0x2e4 LastSystemRITEventTickCount : Uint4B&lt;/font&gt;&lt;/div&gt;&lt;div&gt;&lt;font face=&quot;Helvetica&quot; style=&quot;font-size: 9px;&quot;&gt;&amp;nbsp; &amp;nbsp;+0x2e8 NumberOfPhysicalPages : Uint4B&lt;/font&gt;&lt;/div&gt;&lt;div&gt;&lt;font face=&quot;Helvetica&quot; style=&quot;font-size: 9px;&quot;&gt;&amp;nbsp; &amp;nbsp;+0x2ec SafeBootMode&amp;nbsp; &amp;nbsp; &amp;nbsp;: UChar&lt;/font&gt;&lt;/div&gt;&lt;div&gt;&lt;font face=&quot;Helvetica&quot; style=&quot;font-size: 9px;&quot;&gt;&amp;nbsp; &amp;nbsp;+0x2f0 TraceLogging&amp;nbsp; &amp;nbsp; &amp;nbsp;: Uint4B&lt;/font&gt;&lt;/div&gt;&lt;div&gt;&lt;font face=&quot;Helvetica&quot; style=&quot;font-size: 9px;&quot;&gt;&amp;nbsp; &amp;nbsp;+0x2f8 TestRetInstruction : Uint8B&lt;/font&gt;&lt;/div&gt;&lt;div&gt;&lt;font face=&quot;Helvetica&quot; style=&quot;font-size: 9px;&quot;&gt;&amp;nbsp; &amp;nbsp;+0x300 SystemCall&amp;nbsp; &amp;nbsp; &amp;nbsp; &amp;nbsp;: Uint4B&lt;/font&gt;&lt;/div&gt;&lt;div&gt;&lt;font face=&quot;Helvetica&quot; style=&quot;font-size: 9px;&quot;&gt;&amp;nbsp; &amp;nbsp;+0x304 SystemCallReturn : Uint4B&lt;/font&gt;&lt;/div&gt;&lt;div&gt;&lt;font face=&quot;Helvetica&quot; style=&quot;font-size: 9px;&quot;&gt;&amp;nbsp; &amp;nbsp;+0x308 SystemCallPad&amp;nbsp; &amp;nbsp; : [3] Uint8B&lt;/font&gt;&lt;/div&gt;&lt;div&gt;&lt;font face=&quot;Helvetica&quot; style=&quot;font-size: 9px;&quot;&gt;&amp;nbsp; &amp;nbsp;+0x320 TickCount&amp;nbsp; &amp;nbsp; &amp;nbsp; &amp;nbsp; : _KSYSTEM_TIME&lt;/font&gt;&lt;/div&gt;&lt;div&gt;&lt;font face=&quot;Helvetica&quot; style=&quot;font-size: 9px;&quot;&gt;&amp;nbsp; &amp;nbsp;+0x320 TickCountQuad&amp;nbsp; &amp;nbsp; : Uint8B&lt;/font&gt;&lt;/div&gt;&lt;div&gt;&lt;font face=&quot;Helvetica&quot; style=&quot;font-size: 9px;&quot;&gt;&amp;nbsp; &amp;nbsp;+0x330 Cookie&amp;nbsp; &amp;nbsp; &amp;nbsp; &amp;nbsp; &amp;nbsp; &amp;nbsp;: Uint4B&lt;/font&gt;&lt;/div&gt;" style="text;html=1;align=left;verticalAlign=middle;resizable=0;points=[];autosize=1;strokeColor=none;fillColor=none;" vertex="1" parent="1">
          <mxGeometry x="497" y="-180" width="330" height="590" as="geometry" />
        </mxCell>
        <mxCell id="CPB3MRj11Ws4QXEBcg-o-11" value="KiIntSystemCall()" style="text;html=1;align=center;verticalAlign=middle;resizable=0;points=[];autosize=1;strokeColor=none;fillColor=none;" vertex="1" parent="1">
          <mxGeometry x="250" y="340" width="120" height="30" as="geometry" />
        </mxCell>
        <mxCell id="CPB3MRj11Ws4QXEBcg-o-12" value="KiFastSystemCall()" style="text;html=1;align=center;verticalAlign=middle;resizable=0;points=[];autosize=1;strokeColor=none;fillColor=none;" vertex="1" parent="1">
          <mxGeometry x="110" y="340" width="130" height="30" as="geometry" />
        </mxCell>
        <mxCell id="CPB3MRj11Ws4QXEBcg-o-13" value="&lt;div&gt;lea edx, ...&lt;/div&gt;&lt;div&gt;int 2Eh&lt;/div&gt;&lt;div&gt;retn&lt;/div&gt;" style="text;html=1;align=left;verticalAlign=middle;resizable=0;points=[];autosize=1;strokeColor=none;fillColor=none;" vertex="1" parent="1">
          <mxGeometry x="280" y="360" width="80" height="60" as="geometry" />
        </mxCell>
        <mxCell id="CPB3MRj11Ws4QXEBcg-o-14" value="&lt;div&gt;mov edx, esp&lt;/div&gt;&lt;div&gt;sysenter&lt;/div&gt;" style="text;html=1;align=left;verticalAlign=middle;resizable=0;points=[];autosize=1;strokeColor=none;fillColor=none;" vertex="1" parent="1">
          <mxGeometry x="140" y="360" width="90" height="40" as="geometry" />
        </mxCell>
        <mxCell id="CPB3MRj11Ws4QXEBcg-o-17" value="ntdll.dll" style="text;html=1;align=center;verticalAlign=middle;whiteSpace=wrap;rounded=0;" vertex="1" parent="1">
          <mxGeometry x="84" y="200" width="60" height="30" as="geometry" />
        </mxCell>
        <mxCell id="CPB3MRj11Ws4QXEBcg-o-19" value="*.dll" style="text;html=1;align=center;verticalAlign=middle;whiteSpace=wrap;rounded=0;" vertex="1" parent="1">
          <mxGeometry x="80" y="-10" width="60" height="30" as="geometry" />
        </mxCell>
        <mxCell id="CPB3MRj11Ws4QXEBcg-o-20" value="" style="rounded=0;whiteSpace=wrap;html=1;fillColor=none;" vertex="1" parent="1">
          <mxGeometry x="80" y="450" width="330" height="220" as="geometry" />
        </mxCell>
        <mxCell id="CPB3MRj11Ws4QXEBcg-o-21" value="ntoskrnl.exe&lt;div&gt;ntkrnlpa.exe&lt;/div&gt;" style="text;html=1;align=left;verticalAlign=middle;whiteSpace=wrap;rounded=0;" vertex="1" parent="1">
          <mxGeometry x="80" y="456" width="140" height="20" as="geometry" />
        </mxCell>
        <mxCell id="CPB3MRj11Ws4QXEBcg-o-22" value="KiSystemService()" style="text;html=1;align=center;verticalAlign=middle;resizable=0;points=[];autosize=1;strokeColor=none;fillColor=none;" vertex="1" parent="1">
          <mxGeometry x="250" y="520" width="120" height="30" as="geometry" />
        </mxCell>
        <mxCell id="CPB3MRj11Ws4QXEBcg-o-23" value="KiFastCallEntry()" style="text;html=1;align=center;verticalAlign=middle;resizable=0;points=[];autosize=1;strokeColor=none;fillColor=none;" vertex="1" parent="1">
          <mxGeometry x="120" y="520" width="110" height="30" as="geometry" />
        </mxCell>
      </root>
    </mxGraphModel>
  </diagram>
</mxfile>
